
<svg width="14" height="14" viewBox="0 0 14 14" fill="none" xmlns="http://www.w3.org/2000/svg">
<path d="M6.06215 1.5345C6.38431 0.663886 7.61569 0.663887 7.93785 1.53451L9.00115 4.40803C9.10244 4.68175 9.31825 4.89756 9.59197 4.99885L12.4655 6.06215C13.3361 6.38431 13.3361 7.61569 12.4655 7.93785L9.59197 9.00115C9.31825 9.10244 9.10244 9.31825 9.00115 9.59197L7.93785 12.4655C7.61569 13.3361 6.38431 13.3361 6.06215 12.4655L4.99885 9.59197C4.89756 9.31825 4.68175 9.10244 4.40803 9.00115L1.5345 7.93785C0.663886 7.61569 0.663887 6.38431 1.53451 6.06215L4.40803 4.99885C4.68175 4.89756 4.89756 4.68175 4.99885 4.40803L6.06215 1.5345Z" fill="black"/>
</svg>
